<svg xmlns="http://www.w3.org/2000/svg" viewBox="0 0 120 120" width="120" height="120">
  <!-- Couch -->
  <path d="M15 70 Q15 55 30 55 L90 55 Q105 55 105 70 L105 85 Q105 95 95 95 L25 95 Q15 95 15 85 Z" fill="#E50914"/>
  <path d="M20 60 Q20 50 35 50 L85 50 Q100 50 100 60 L100 70 L20 70 Z" fill="#B30710"/>
  <!-- Cushions -->
  <ellipse cx="45" cy="65" rx="18" ry="10" fill="#FF1A1A"/>
  <ellipse cx="75" cy="65" rx="18" ry="10" fill="#FF1A1A"/>
  <!-- Person chilling -->
  <circle cx="60" cy="35" r="12" fill="#FFD5B0"/>
  <path d="M45 50 Q60 65 75 50" stroke="#333" stroke-width="2" fill="none"/>
  <ellipse cx="55" cy="33" rx="2" ry="2" fill="#333"/>
  <ellipse cx="65" cy="33" rx="2" ry="2" fill="#333"/>
  <path d="M57 38 Q60 42 63 38" stroke="#333" stroke-width="1.5" fill="none"/>
  <!-- Remote in hand -->
  <rect x="82" y="72" width="8" height="15" rx="2" fill="#333"/>
  <circle cx="86" cy="76" r="1.5" fill="#E50914"/>
  <!-- Snacks -->
  <path d="M25 75 L30 60 L40 60 L45 75 Z" fill="#FFD700"/>
  <ellipse cx="35" cy="60" rx="8" ry="4" fill="#FFF"/>
</svg>
